{
    "asset" : {
        "generator" : "Khronos glTF Blender I/O v1.5.17",
        "version" : "2.0"
    },
    "scene" : 0,
    "scenes" : [
        {
            "name" : "Scene",
            "nodes" : [
                11
            ]
        }
    ],
    "nodes" : [
        {
            "name" : "NOSE_TIP",
            "translation" : [
                0,
                -0.4630002975463867,
                -7.586580753326416
            ]
        },
        {
            "name" : "FOREHEAD_RIGHT",
            "rotation" : [
                0.14623038470745087,
                -0.27242931723594666,
                0.041930895298719406,
                0.9500740766525269
            ],
            "scale" : [
                1,
                0.9999998807907104,
                1.0000001192092896
            ],
            "translation" : [
                3.7090003490448,
                6.963999271392822,
                -3.9810001850128174
            ]
        },
        {
            "name" : "FOREHEAD_LEFT",
            "rotation" : [
                0.14623038470745087,
                0.27242937684059143,
                -0.041930895298719406,
                0.9500740766525269
            ],
            "scale" : [
                0.9999999403953552,
                0.9999997615814209,
                0.9999999403953552
            ],
            "translation" : [
                -3.7090003490448,
                6.9640092849731445,
                -3.9809999465942383
            ]
        },
        {
            "children" : [
                0,
                1,
                2
            ],
            "name" : "root",
            "rotation" : [
                -0.7071068286895752,
                0,
                0,
                0.7071068286895752
            ]
        },
        {
            "mesh" : 0,
            "name" : "facemesh",
            "skin" : 0
        },
        {
            "mesh" : 1,
            "name" : "Mesh_0.001",
            "rotation" : [
                0,
                0.9991983771324158,
                -0.04003391042351723,
                1.7499304227897028e-09
            ],
            "scale" : [
                1.5963053703308105,
                1.5963054895401,
                1.5963054895401
            ],
            "translation" : [
                0.03616662323474884,
                1.060915470123291,
                0.9030742645263672
            ]
        },
        {
            "mesh" : 2,
            "name" : "Mesh_1.001",
            "rotation" : [
                0,
                0.9991983771324158,
                -0.04003391042351723,
                1.7499304227897028e-09
            ],
            "scale" : [
                1.5963053703308105,
                1.5963054895401,
                1.5963054895401
            ],
            "translation" : [
                0.03616662323474884,
                1.060915470123291,
                0.9030742645263672
            ]
        },
        {
            "mesh" : 3,
            "name" : "Mesh_3.001",
            "rotation" : [
                0,
                0.9991983771324158,
                -0.04003391042351723,
                1.7499304227897028e-09
            ],
            "scale" : [
                1.5963053703308105,
                1.5963054895401,
                1.5963054895401
            ],
            "translation" : [
                0.03616662323474884,
                1.060915470123291,
                0.9030742645263672
            ]
        },
        {
            "mesh" : 4,
            "name" : "Mesh_4.001",
            "rotation" : [
                0,
                0.9991983771324158,
                -0.04003391042351723,
                1.7499304227897028e-09
            ],
            "scale" : [
                1.5963053703308105,
                1.5963054895401,
                1.5963054895401
            ],
            "translation" : [
                0.03616662323474884,
                1.060915470123291,
                0.9030742645263672
            ]
        },
        {
            "mesh" : 5,
            "name" : "Mesh_5.001",
            "rotation" : [
                0,
                0.9991983771324158,
                -0.04003391042351723,
                1.7499304227897028e-09
            ],
            "scale" : [
                1.5963053703308105,
                1.5963054895401,
                1.5963054895401
            ],
            "translation" : [
                0.03616662323474884,
                1.060915470123291,
                0.9030742645263672
            ]
        },
        {
            "mesh" : 6,
            "name" : "Mesh_6.001",
            "rotation" : [
                0,
                0.9991983771324158,
                -0.04003391042351723,
                1.7499304227897028e-09
            ],
            "scale" : [
                1.5963053703308105,
                1.5963054895401,
                1.5963054895401
            ],
            "translation" : [
                0.03616662323474884,
                1.060915470123291,
                0.9030742645263672
            ]
        },
        {
            "children" : [
                4,
                5,
                6,
                7,
                8,
                9,
                10,
                3
            ],
            "name" : "asset",
            "rotation" : [
                0,
                0.7071067094802856,
                -0.7071068286895752,
                -3.0908616110991716e-08
            ],
            "scale" : [
                0.009999999776482582,
                0.009999999776482582,
                0.009999999776482582
            ]
        }
    ],
    "materials" : [
        {
            "doubleSided" : true,
            "name" : "lambert1.001",
            "pbrMetallicRoughness" : {
                "baseColorFactor" : [
                    0.5,
                    0.5,
                    0.5,
                    1
                ],
                "metallicFactor" : 0,
                "roughnessFactor" : 0.5527864098548889
            }
        },
        {
            "doubleSided" : true,
            "name" : "6666.001",
            "pbrMetallicRoughness" : {
                "baseColorFactor" : [
                    0.9799863696098328,
                    0.855775773525238,
                    0.4019079804420471,
                    1
                ],
                "roughnessFactor" : 0.30000001192092896
            }
        },
        {
            "alphaMode" : "BLEND",
            "doubleSided" : true,
            "name" : "7777.001",
            "pbrMetallicRoughness" : {
                "baseColorFactor" : [
                    1,
                    1,
                    1,
                    0.3499999940395355
                ],
                "metallicFactor" : 0,
                "roughnessFactor" : 0.22002778947353363
            }
        },
        {
            "doubleSided" : true,
            "name" : "kanagu.001",
            "pbrMetallicRoughness" : {
                "baseColorFactor" : [
                    0.9822505712509155,
                    0.8549926280975342,
                    0.4019777774810791,
                    1
                ],
                "roughnessFactor" : 0.699999988079071
            }
        },
        {
            "alphaMode" : "BLEND",
            "doubleSided" : true,
            "name" : "nose.001",
            "pbrMetallicRoughness" : {
                "baseColorFactor" : [
                    1,
                    1,
                    1,
                    0.25
                ],
                "metallicFactor" : 0,
                "roughnessFactor" : 0.20178726315498352
            }
        },
        {
            "doubleSided" : true,
            "name" : "steel01.001",
            "pbrMetallicRoughness" : {
                "baseColorFactor" : [
                    0.9822505712509155,
                    0.8549926280975342,
                    0.4019777774810791,
                    1
                ],
                "roughnessFactor" : 0.30000001192092896
            }
        },
        {
            "doubleSided" : true,
            "name" : "steel2.001",
            "pbrMetallicRoughness" : {
                "baseColorFactor" : [
                    0.9822505712509155,
                    0.8549926280975342,
                    0.4019777774810791,
                    1
                ],
                "roughnessFactor" : 0.30000001192092896
            }
        }
    ],
    "meshes" : [
        {
            "name" : "Mesh",
            "primitives" : [
                {
                    "attributes" : {
                        "POSITION" : 0,
                        "NORMAL" : 1,
                        "TEXCOORD_0" : 2,
                        "JOINTS_0" : 3,
                        "WEIGHTS_0" : 4
                    },
                    "indices" : 5,
                    "material" : 0
                }
            ]
        },
        {
            "name" : "Mesh_0.001",
            "primitives" : [
                {
                    "attributes" : {
                        "POSITION" : 7,
                        "NORMAL" : 8
                    },
                    "indices" : 9,
                    "material" : 1
                }
            ]
        },
        {
            "name" : "Mesh_1.001",
            "primitives" : [
                {
                    "attributes" : {
                        "POSITION" : 10,
                        "NORMAL" : 11
                    },
                    "indices" : 12,
                    "material" : 2
                }
            ]
        },
        {
            "name" : "Mesh_3.001",
            "primitives" : [
                {
                    "attributes" : {
                        "POSITION" : 13,
                        "NORMAL" : 14
                    },
                    "indices" : 15,
                    "material" : 3
                }
            ]
        },
        {
            "name" : "Mesh_4.001",
            "primitives" : [
                {
                    "attributes" : {
                        "POSITION" : 16,
                        "NORMAL" : 17
                    },
                    "indices" : 18,
                    "material" : 4
                }
            ]
        },
        {
            "name" : "Mesh_5.001",
            "primitives" : [
                {
                    "attributes" : {
                        "POSITION" : 19,
                        "NORMAL" : 20
                    },
                    "indices" : 21,
                    "material" : 5
                }
            ]
        },
        {
            "name" : "Mesh_6.001",
            "primitives" : [
                {
                    "attributes" : {
                        "POSITION" : 22,
                        "NORMAL" : 23
                    },
                    "indices" : 24,
                    "material" : 6
                }
            ]
        }
    ],
    "skins" : [
        {
            "inverseBindMatrices" : 6,
            "joints" : [
                3,
                0,
                1,
                2
            ],
            "name" : "asset"
        }
    ],
    "accessors" : [
        {
            "bufferView" : 0,
            "componentType" : 5126,
            "count" : 2694,
            "max" : [
                0.07743094861507416,
                0.08261778950691223,
                0.07586580514907837
            ],
            "min" : [
                -0.07743094861507416,
                -0.09403376281261444,
                -0.024358676746487617
            ],
            "type" : "VEC3"
        },
        {
            "bufferView" : 1,
            "componentType" : 5126,
            "count" : 2694,
            "type" : "VEC3"
        },
        {
            "bufferView" : 2,
            "componentType" : 5126,
            "count" : 2694,
            "type" : "VEC2"
        },
        {
            "bufferView" : 3,
            "componentType" : 5121,
            "count" : 2694,
            "type" : "VEC4"
        },
        {
            "bufferView" : 4,
            "componentType" : 5126,
            "count" : 2694,
            "type" : "VEC4"
        },
        {
            "bufferView" : 5,
            "componentType" : 5123,
            "count" : 2694,
            "type" : "SCALAR"
        },
        {
            "bufferView" : 6,
            "componentType" : 5126,
            "count" : 4,
            "type" : "MAT4"
        },
        {
            "bufferView" : 7,
            "componentType" : 5126,
            "count" : 20574,
            "max" : [
                4.907052993774414,
                4.370110034942627,
                2.6789820194244385
            ],
            "min" : [
                -4.759873867034912,
                -4.255524158477783,
                0.29229500889778137
            ],
            "type" : "VEC3"
        },
        {
            "bufferView" : 8,
            "componentType" : 5126,
            "count" : 20574,
            "type" : "VEC3"
        },
        {
            "bufferView" : 9,
            "componentType" : 5123,
            "count" : 113712,
            "type" : "SCALAR"
        },
        {
            "bufferView" : 10,
            "componentType" : 5126,
            "count" : 4120,
            "max" : [
                4.926387786865234,
                4.685140132904053,
                2.2574570178985596
            ],
            "min" : [
                -4.779210090637207,
                1.1284480094909668,
                0.01915300078690052
            ],
            "type" : "VEC3"
        },
        {
            "bufferView" : 11,
            "componentType" : 5126,
            "count" : 4120,
            "type" : "VEC3"
        },
        {
            "bufferView" : 12,
            "componentType" : 5123,
            "count" : 23808,
            "type" : "SCALAR"
        },
        {
            "bufferView" : 13,
            "componentType" : 5126,
            "count" : 8082,
            "max" : [
                0.9080510139465332,
                -3.942138910293579,
                1.7804449796676636
            ],
            "min" : [
                -0.760873019695282,
                -4.253559112548828,
                1.4379539489746094
            ],
            "type" : "VEC3"
        },
        {
            "bufferView" : 14,
            "componentType" : 5126,
            "count" : 8082,
            "type" : "VEC3"
        },
        {
            "bufferView" : 15,
            "componentType" : 5123,
            "count" : 42432,
            "type" : "SCALAR"
        },
        {
            "bufferView" : 16,
            "componentType" : 5126,
            "count" : 8612,
            "max" : [
                1.0831049680709839,
                -3.883574962615967,
                2.0562639236450195
            ],
            "min" : [
                -0.9359269738197327,
                -4.25858211517334,
                1.092391014099121
            ],
            "type" : "VEC3"
        },
        {
            "bufferView" : 17,
            "componentType" : 5126,
            "count" : 8612,
            "type" : "VEC3"
        },
        {
            "bufferView" : 18,
            "componentType" : 5123,
            "count" : 51648,
            "type" : "SCALAR"
        },
        {
            "bufferView" : 19,
            "componentType" : 5126,
            "count" : 12617,
            "max" : [
                4.261030197143555,
                -4.096457004547119,
                2.760024070739746
            ],
            "min" : [
                -4.113852024078369,
                -4.49534797668457,
                2.5086259841918945
            ],
            "type" : "VEC3"
        },
        {
            "bufferView" : 20,
            "componentType" : 5126,
            "count" : 12617,
            "type" : "VEC3"
        },
        {
            "bufferView" : 21,
            "componentType" : 5123,
            "count" : 63624,
            "type" : "SCALAR"
        },
        {
            "bufferView" : 22,
            "componentType" : 5126,
            "count" : 26997,
            "max" : [
                4.273770809173584,
                -4.068767070770264,
                3.1924259662628174
            ],
            "min" : [
                -4.116269111633301,
                -4.715442180633545,
                0.02995700016617775
            ],
            "type" : "VEC3"
        },
        {
            "bufferView" : 23,
            "componentType" : 5126,
            "count" : 26997,
            "type" : "VEC3"
        },
        {
            "bufferView" : 24,
            "componentType" : 5123,
            "count" : 150324,
            "type" : "SCALAR"
        }
    ],
    "bufferViews" : [
        {
            "buffer" : 0,
            "byteLength" : 32328,
            "byteOffset" : 0
        },
        {
            "buffer" : 0,
            "byteLength" : 32328,
            "byteOffset" : 32328
        },
        {
            "buffer" : 0,
            "byteLength" : 21552,
            "byteOffset" : 64656
        },
        {
            "buffer" : 0,
            "byteLength" : 10776,
            "byteOffset" : 86208
        },
        {
            "buffer" : 0,
            "byteLength" : 43104,
            "byteOffset" : 96984
        },
        {
            "buffer" : 0,
            "byteLength" : 5388,
            "byteOffset" : 140088
        },
        {
            "buffer" : 0,
            "byteLength" : 256,
            "byteOffset" : 145476
        },
        {
            "buffer" : 0,
            "byteLength" : 246888,
            "byteOffset" : 145732
        },
        {
            "buffer" : 0,
            "byteLength" : 246888,
            "byteOffset" : 392620
        },
        {
            "buffer" : 0,
            "byteLength" : 227424,
            "byteOffset" : 639508
        },
        {
            "buffer" : 0,
            "byteLength" : 49440,
            "byteOffset" : 866932
        },
        {
            "buffer" : 0,
            "byteLength" : 49440,
            "byteOffset" : 916372
        },
        {
            "buffer" : 0,
            "byteLength" : 47616,
            "byteOffset" : 965812
        },
        {
            "buffer" : 0,
            "byteLength" : 96984,
            "byteOffset" : 1013428
        },
        {
            "buffer" : 0,
            "byteLength" : 96984,
            "byteOffset" : 1110412
        },
        {
            "buffer" : 0,
            "byteLength" : 84864,
            "byteOffset" : 1207396
        },
        {
            "buffer" : 0,
            "byteLength" : 103344,
            "byteOffset" : 1292260
        },
        {
            "buffer" : 0,
            "byteLength" : 103344,
            "byteOffset" : 1395604
        },
        {
            "buffer" : 0,
            "byteLength" : 103296,
            "byteOffset" : 1498948
        },
        {
            "buffer" : 0,
            "byteLength" : 151404,
            "byteOffset" : 1602244
        },
        {
            "buffer" : 0,
            "byteLength" : 151404,
            "byteOffset" : 1753648
        },
        {
            "buffer" : 0,
            "byteLength" : 127248,
            "byteOffset" : 1905052
        },
        {
            "buffer" : 0,
            "byteLength" : 323964,
            "byteOffset" : 2032300
        },
        {
            "buffer" : 0,
            "byteLength" : 323964,
            "byteOffset" : 2356264
        },
        {
            "buffer" : 0,
            "byteLength" : 300648,
            "byteOffset" : 2680228
        }
    ],
    "buffers" : [
        {
            "byteLength" : 2980876,
            "uri" : "round-silver.bin"
        }
    ]
}
