{
    "asset" : {
        "generator" : "Khronos glTF Blender I/O v1.5.17",
        "version" : "2.0"
    },
    "scene" : 0,
    "scenes" : [
        {
            "name" : "Scene",
            "nodes" : [
                0,
                1,
                10
            ]
        }
    ],
    "nodes" : [
        {
            "name" : "Light",
            "rotation" : [
                0.16907575726509094,
                0.7558803558349609,
                -0.27217137813568115,
                0.570947527885437
            ],
            "translation" : [
                4.076245307922363,
                5.903861999511719,
                -1.0054539442062378
            ]
        },
        {
            "name" : "Camera",
            "rotation" : [
                0.483536034822464,
                0.33687159419059753,
                -0.20870360732078552,
                0.7804827094078064
            ],
            "translation" : [
                7.358891487121582,
                4.958309173583984,
                6.925790786743164
            ]
        },
        {
            "mesh" : 0,
            "name" : "am_body",
            "scale" : [
                0.10000000149011612,
                0.10000000149011612,
                0.10000000149011612
            ],
            "translation" : [
                0,
                4.999999523162842,
                0
            ]
        },
        {
            "name" : "NOSE_TIP_end",
            "translation" : [
                0,
                8.425270080566406,
                0
            ]
        },
        {
            "children" : [
                3
            ],
            "name" : "NOSE_TIP",
            "translation" : [
                0,
                -0.4630002975463867,
                -7.586580753326416
            ]
        },
        {
            "name" : "FOREHEAD_RIGHT_end",
            "rotation" : [
                -1.862645593320167e-09,
                4.4284568900820886e-08,
                -1.995507048491163e-08,
                1
            ],
            "translation" : [
                3.4271658932993887e-07,
                8.425270080566406,
                -7.152557373046875e-07
            ]
        },
        {
            "children" : [
                5
            ],
            "name" : "FOREHEAD_RIGHT",
            "rotation" : [
                0.14623038470745087,
                -0.27242937684059143,
                0.0419309064745903,
                0.9500740766525269
            ],
            "scale" : [
                1,
                0.9999998807907104,
                0.9999999403953552
            ],
            "translation" : [
                3.709000587463379,
                6.963998794555664,
                -3.9810001850128174
            ]
        },
        {
            "name" : "FOREHEAD_LEFT_end",
            "rotation" : [
                -4.284083843231201e-08,
                3.617095600816356e-08,
                1.2748138544793619e-08,
                1
            ],
            "scale" : [
                0.9999999403953552,
                1,
                1
            ],
            "translation" : [
                -2.085964467823942e-07,
                8.425273895263672,
                9.536742027194123e-07
            ]
        },
        {
            "children" : [
                7
            ],
            "name" : "FOREHEAD_LEFT",
            "rotation" : [
                0.14623039960861206,
                0.27242937684059143,
                -0.0419309176504612,
                0.9500740766525269
            ],
            "scale" : [
                1,
                0.9999998807907104,
                1
            ],
            "translation" : [
                -3.7090001106262207,
                6.964011192321777,
                -3.980999231338501
            ]
        },
        {
            "children" : [
                4,
                6,
                8
            ],
            "name" : "root",
            "rotation" : [
                -0.7071068286895752,
                0,
                0,
                0.7071068286895752
            ]
        },
        {
            "children" : [
                2,
                9
            ],
            "name" : "asset",
            "rotation" : [
                0.7071068286895752,
                0,
                0,
                0.7071067094802856
            ],
            "scale" : [
                0.009999999776482582,
                0.009999999776482582,
                0.009999999776482582
            ]
        }
    ],
    "materials" : [
        {
            "doubleSided" : true,
            "name" : "body",
            "pbrMetallicRoughness" : {
                "baseColorFactor" : [
                    0.9810126423835754,
                    0.6721456050872803,
                    0,
                    1
                ],
                "metallicFactor" : 0,
                "roughnessFactor" : 0
            }
        }
    ],
    "meshes" : [
        {
            "name" : "Mesh.001",
            "primitives" : [
                {
                    "attributes" : {
                        "POSITION" : 0,
                        "NORMAL" : 1,
                        "TEXCOORD_0" : 2
                    },
                    "indices" : 3,
                    "material" : 0
                }
            ]
        }
    ],
    "accessors" : [
        {
            "bufferView" : 0,
            "componentType" : 5126,
            "count" : 2681,
            "max" : [
                81.28997802734375,
                22.717060089111328,
                -3.1523725986480713
            ],
            "min" : [
                -81.28996276855469,
                -114.49226379394531,
                -52.1900634765625
            ],
            "type" : "VEC3"
        },
        {
            "bufferView" : 1,
            "componentType" : 5126,
            "count" : 2681,
            "type" : "VEC3"
        },
        {
            "bufferView" : 2,
            "componentType" : 5126,
            "count" : 2681,
            "type" : "VEC2"
        },
        {
            "bufferView" : 3,
            "componentType" : 5123,
            "count" : 14394,
            "type" : "SCALAR"
        }
    ],
    "bufferViews" : [
        {
            "buffer" : 0,
            "byteLength" : 32172,
            "byteOffset" : 0
        },
        {
            "buffer" : 0,
            "byteLength" : 32172,
            "byteOffset" : 32172
        },
        {
            "buffer" : 0,
            "byteLength" : 21448,
            "byteOffset" : 64344
        },
        {
            "buffer" : 0,
            "byteLength" : 28788,
            "byteOffset" : 85792
        }
    ],
    "buffers" : [
        {
            "byteLength" : 114580,
            "uri" : "data:application/octet-stream;base64,"
        }
    ]
}
