{
    "asset" : {
        "generator" : "Khronos glTF Blender I/O v1.5.17",
        "version" : "2.0"
    },
    "scene" : 0,
    "scenes" : [
        {
            "name" : "Scene",
            "nodes" : [
                5
            ]
        }
    ],
    "nodes" : [
        {
            "mesh" : 0,
            "name" : "Cube.001__0",
            "rotation" : [
                0,
                0.9999926090240479,
                -0.0038372038397938013,
                1.6772234989748114e-10
            ],
            "scale" : [
                16.403358459472656,
                16.403358459472656,
                16.403358459472656
            ],
            "translation" : [
                0.2557004690170288,
                -5.554784297943115,
                1.4322853088378906
            ]
        },
        {
            "name" : "NOSE_TIP",
            "translation" : [
                0,
                -0.4630002975463867,
                -7.586580753326416
            ]
        },
        {
            "name" : "FOREHEAD_RIGHT",
            "rotation" : [
                0.14623038470745087,
                -0.27242931723594666,
                0.041930895298719406,
                0.9500740766525269
            ],
            "scale" : [
                1,
                0.9999998807907104,
                1.0000001192092896
            ],
            "translation" : [
                3.7090003490448,
                6.963999271392822,
                -3.9810001850128174
            ]
        },
        {
            "name" : "FOREHEAD_LEFT",
            "rotation" : [
                0.14623038470745087,
                0.27242937684059143,
                -0.041930895298719406,
                0.9500740766525269
            ],
            "scale" : [
                0.9999999403953552,
                0.9999997615814209,
                0.9999999403953552
            ],
            "translation" : [
                -3.7090003490448,
                6.9640092849731445,
                -3.9809999465942383
            ]
        },
        {
            "children" : [
                1,
                2,
                3
            ],
            "name" : "root",
            "rotation" : [
                -0.7071068286895752,
                0,
                0,
                0.7071068286895752
            ]
        },
        {
            "children" : [
                0,
                4
            ],
            "name" : "asset",
            "rotation" : [
                0,
                0.7071067094802856,
                -0.7071068286895752,
                -3.0908616110991716e-08
            ],
            "scale" : [
                0.009999999776482582,
                0.009999999776482582,
                0.009999999776482582
            ]
        }
    ],
    "materials" : [
        {
            "alphaMode" : "BLEND",
            "doubleSided" : true,
            "name" : "Scene_-_Root",
            "normalTexture" : {
                "index" : 0
            },
            "occlusionTexture" : {
                "index" : 1
            },
            "pbrMetallicRoughness" : {
                "baseColorTexture" : {
                    "index" : 2
                },
                "metallicRoughnessTexture" : {
                    "index" : 1
                }
            }
        }
    ],
    "meshes" : [
        {
            "name" : "Cube.001__0",
            "primitives" : [
                {
                    "attributes" : {
                        "POSITION" : 0,
                        "NORMAL" : 1,
                        "TEXCOORD_0" : 2
                    },
                    "indices" : 3,
                    "material" : 0
                }
            ]
        }
    ],
    "textures" : [
        {
            "sampler" : 0,
            "source" : 0
        },
        {
            "sampler" : 0,
            "source" : 1
        },
        {
            "sampler" : 0,
            "source" : 2
        }
    ],
    "images" : [
        {
            "bufferView" : 4,
            "mimeType" : "image/jpeg",
            "name" : "Scene_-_Root_normal"
        },
        {
            "bufferView" : 5,
            "mimeType" : "image/png",
            "name" : "Scene_-_Root_metallicRoughness"
        },
        {
            "bufferView" : 6,
            "mimeType" : "image/png",
            "name" : "Scene_-_Root_baseColor"
        }
    ],
    "accessors" : [
        {
            "bufferView" : 0,
            "componentType" : 5126,
            "count" : 5070,
            "max" : [
                0.5001164078712463,
                1.0557013750076294,
                0.3594406545162201
            ],
            "min" : [
                -0.4701307713985443,
                -0.024650683626532555,
                0.021179858595132828
            ],
            "type" : "VEC3"
        },
        {
            "bufferView" : 1,
            "componentType" : 5126,
            "count" : 5070,
            "type" : "VEC3"
        },
        {
            "bufferView" : 2,
            "componentType" : 5126,
            "count" : 5070,
            "type" : "VEC2"
        },
        {
            "bufferView" : 3,
            "componentType" : 5123,
            "count" : 12660,
            "type" : "SCALAR"
        }
    ],
    "bufferViews" : [
        {
            "buffer" : 0,
            "byteLength" : 60840,
            "byteOffset" : 0
        },
        {
            "buffer" : 0,
            "byteLength" : 60840,
            "byteOffset" : 60840
        },
        {
            "buffer" : 0,
            "byteLength" : 40560,
            "byteOffset" : 121680
        },
        {
            "buffer" : 0,
            "byteLength" : 25320,
            "byteOffset" : 162240
        },
        {
            "buffer" : 0,
            "byteLength" : 441859,
            "byteOffset" : 187560
        },
        {
            "buffer" : 0,
            "byteLength" : 1354562,
            "byteOffset" : 629420
        },
        {
            "buffer" : 0,
            "byteLength" : 1151535,
            "byteOffset" : 1983984
        }
    ],
    "samplers" : [
        {
            "magFilter" : 9729,
            "minFilter" : 9987
        }
    ],
    "buffers" : [
        {
            "byteLength" : 3135520,
            "uri" : "data:application/octet-stream;base64,"
        }
    ]
}
